<svg id="Layer_1" data-name="Layer 1" xmlns="http://www.w3.org/2000/svg" viewBox="0 0 293.75 169.31">
  <defs>
    <style>
      .cls-1{fill:none;stroke:#c02026;stroke-miterlimit:10;stroke-width:4.25px}
    </style>
  </defs>
  <path class="cls-1" transform="rotate(-180 226.74 243.755)" d="M161.86 320.9h288.89v164.49H161.86z"/>
  <path class="cls-1" d="M223.32 44.03h-36.15l-20.41 18.28v41.5l20.22 19.72h36.34l21.49-20.89V62.02l-21.49-17.99z"/>
  <path class="cls-1" d="M164.71 44.03h-36.15l-20.41 18.28v41.5l20.22 19.72h36.34l21.49-20.89V62.02l-21.49-17.99z"/>
  <path class="cls-1" d="M102.33 44.03H66.18L45.77 62.31v41.5l20.22 19.72h36.34l21.49-20.89V62.02l-21.49-17.99z"/>
  <path class="cls-1" transform="rotate(-180 227.46 244.75)" d="M183.57 344.04h246.91v120.2H183.57z"/>
  <path class="cls-1" d="M4.86 123.53H41.2l21.5-20.89V62.02L41.2 44.03H5.05M287.69 123.53h-36.35l-21.49-20.89V62.02l21.49-17.99h36.15"/>
  <path class="cls-1" transform="rotate(-180 350.215 182.82)" d="M409.99 321.6h39.58v41.21h-39.58z"/>
  <path class="cls-1" transform="rotate(-180 284.905 182.82)" d="M346.02 321.6h36.89v41.21h-36.89z"/>
  <path class="cls-1" transform="rotate(-180 226.12 182.465)" d="M287.12 321.25h37.13v41.21h-37.13z"/>
  <path class="cls-1" transform="rotate(-180 164.36 182.465)" d="M224.74 321.25h38.37v41.21h-38.37z"/>
  <path class="cls-1" transform="rotate(-180 101.625 182.465)" d="M161.25 320.9h39.87v41.91h-39.87z"/>
  <path class="cls-1" transform="rotate(-180 350.295 304.675)" d="M409.25 442.18h41.21v43.76h-41.21z"/>
  <path class="cls-1" transform="rotate(-180 285.095 304.845)" d="M346.45 442.51h36.43v43.45h-36.43z"/>
  <path class="cls-1" transform="rotate(-180 226.35 304.84)" d="M287.54 442.51h36.74v43.43h-36.74z"/>
  <path class="cls-1" transform="rotate(-180 164.29 304.74)" d="M225.63 442.31h36.43v43.63h-36.43z"/>
  <path class="cls-1" transform="rotate(-180 101.62 304.74)" d="M162.15 442.31h38.07v43.63h-38.07z"/>
  <path class="cls-1" d="M144.62.96v165.65M85.43 1.51v165.66M206.08 2.48v165.65M291.34 84.34H4.86M291.14 102.9H4.66M291.14 62.29H4.66"/>
</svg>
