<svg xmlns="http://www.w3.org/2000/svg" data-name="Layer 1" viewBox="0 0 246.26 131.09">
  <g fill="#c02327" aria-label="C H I N A T O W N" class="cls-1" font-family="LeagueGothic-Regular,'League Gothic'" font-size="40.09">
    <path d="M41.899 60.787v4.05c-.04 1.202-.28 2.285-.722 3.207a5.516 5.516 0 01-1.724 2.164c-.801.642-1.883 1.003-3.327 1.003s-2.566-.361-3.368-1.003c-.801-.6-1.323-1.363-1.683-2.164-.441-.922-.682-2.005-.722-3.208V47.477c.04-1.162.28-2.245.722-3.167.36-.801.882-1.603 1.683-2.205.802-.601 1.925-1.002 3.368-1.002 1.443 0 2.526.401 3.327 1.002.802.602 1.363 1.404 1.724 2.205.441.922.682 2.005.722 3.167v4.05h-4.05v-4.05c0-.801-.2-1.363-.64-1.844-.201-.2-.562-.32-1.003-.32-.762 0-1.122.56-1.323 1.082-.12.32-.16.682-.2 1.082v17.36c.04.841.28 1.403.681 1.844.2.2.481.32.842.32.922 0 1.283-.48 1.483-1.082.12-.28.16-.642.16-1.083v-4.049zM58.376 58.061h-3.368V70.89h-4.33V41.424h4.33v12.187h3.368V41.424h4.33V70.89h-4.33zM72.087 41.424h4.33V70.89h-4.33zM90.368 55.536l-.361-1.364h-.24V70.89h-3.97V41.424h3.849l4.21 15.354.36 1.363h.24V41.424h3.97V70.89h-3.849zM106.604 70.89l4.45-29.466h5.292l4.45 29.466h-4.21l-.802-6.013h-4.169l-.802 6.013zm7.336-19.885l-.12-.761h-.24l-.12.761-1.244 9.301h2.967zM127.45 45.874v-4.45h12.509v4.45h-4.09V70.89h-4.33V45.874zM159.082 64.836c-.04 1.203-.281 2.286-.722 3.208a5.516 5.516 0 01-1.724 2.164c-.802.642-1.884 1.003-3.327 1.003-1.444 0-2.566-.361-3.368-1.003-.802-.6-1.323-1.363-1.684-2.164-.44-.922-.681-2.005-.721-3.208V47.477c.04-1.162.28-2.245.721-3.167.361-.801.882-1.603 1.684-2.205.802-.601 1.924-1.002 3.368-1.002 1.443 0 2.525.401 3.327 1.002.802.602 1.363 1.404 1.724 2.205.441.922.681 2.005.722 3.167zm-4.33-17.359c0-.801-.16-1.363-.561-1.844-.2-.2-.522-.32-.882-.32-.762 0-1.123.56-1.283 1.082-.12.32-.16.682-.16 1.082v17.36c0 .841.2 1.403.6 1.844.201.2.482.32.843.32.761 0 1.122-.48 1.283-1.082.12-.28.16-.642.16-1.083zM174.396 70.89h-3.368l-3.969-29.466h4.01l1.723 15.314.08.962h.321l.12-.962 1.845-15.314h3.127l1.844 15.314.12.962h.32l.081-.962 1.724-15.314h4.009l-3.97 29.466h-3.367l-2.004-13.951-.24-1.724h-.161l-.24 1.724zM199.211 55.536l-.36-1.364h-.24V70.89h-3.97V41.424h3.849l4.21 15.354.36 1.363h.24V41.424h3.97V70.89h-3.85z"/>
  </g>
  <g fill="#c02327" aria-label="S T O R I E S" class="cls-1" font-family="LeagueGothic-Regular,'League Gothic'" font-size="40.09">
    <path d="M91.47 86.162c0-.963-.04-2.045-.321-2.887-.28-.802-.722-1.363-1.403-1.363-1.123.04-1.483 1.203-1.483 2.927 0 1.002.44 2.044 1.082 3.167.641 1.122 1.483 2.285 2.325 3.528 1.002 1.483 2.005 3.006 2.766 4.49.762 1.483 1.283 3.006 1.283 4.61 0 1.964-.32 3.809-1.243 5.172-.922 1.363-2.405 2.244-4.77 2.244-2.766 0-4.33-1.042-5.212-2.645-.882-1.605-1.082-3.729-1.082-5.935l4.25-.4c0 1.242.04 2.485.36 3.407.28.962.762 1.604 1.684 1.604 1.283 0 1.764-1.363 1.764-3.247 0-.963-.481-2.085-1.123-3.248-.36-.561-.721-1.162-1.122-1.764a139.146 139.146 0 01-2.726-4.049c-.963-1.483-1.684-3.007-2.125-4.57a7.872 7.872 0 01-.361-2.365c0-1.604.36-3.328 1.283-4.65.922-1.284 2.325-2.206 4.37-2.246 2.606-.04 4.129 1.042 4.97 2.606.843 1.604 1.083 3.568 1.083 5.212zM102.695 82.714v-4.45h12.508v4.45h-4.09v25.016h-4.329V82.714zM134.326 101.676c-.04 1.203-.28 2.286-.722 3.208a5.516 5.516 0 01-1.724 2.164c-.8.642-1.884 1.003-3.327 1.003s-2.566-.361-3.368-1.003c-.802-.6-1.323-1.363-1.683-2.164-.441-.922-.682-2.005-.722-3.208V84.317c.04-1.162.28-2.245.722-3.167.36-.801.881-1.603 1.683-2.205.802-.601 1.925-1.002 3.368-1.002 1.443 0 2.526.401 3.327 1.002.802.602 1.363 1.404 1.724 2.205.441.922.682 2.005.722 3.167zm-4.33-17.359c0-.801-.16-1.363-.561-1.844-.2-.2-.521-.32-.882-.32-.762 0-1.123.56-1.283 1.082-.12.32-.16.682-.16 1.082v17.36c0 .841.2 1.403.601 1.844.2.2.481.32.842.32.762 0 1.122-.48 1.283-1.082.12-.28.16-.642.16-1.083zM151.164 107.73l-2.246-12.428h-1.162v12.428h-4.33V78.264h4.33c5.171 0 7.376 2.926 7.376 8.499 0 2.926-.761 5.572-2.405 6.695l2.766 14.272zm-3.408-16.437c.601 0 1.403-.08 2.044-.641.642-.562 1.163-1.644 1.163-3.729 0-2.084-.521-3.207-1.163-3.768-.641-.561-1.443-.602-2.044-.602zM164.072 78.264h4.33v29.466h-4.33zM177.783 78.264h9.902v4.45h-5.572v7.737h4.009v4.73h-4.01v8.099h5.573v4.45h-9.902zM203.44 86.162c0-.963-.04-2.045-.32-2.887-.28-.802-.722-1.363-1.403-1.363-1.123.04-1.484 1.203-1.484 2.927 0 1.002.441 2.044 1.083 3.167.641 1.122 1.483 2.285 2.325 3.528 1.002 1.483 2.005 3.006 2.766 4.49.763 1.483 1.283 3.006 1.283 4.61 0 1.964-.32 3.809-1.243 5.172-.922 1.363-2.405 2.245-4.77 2.245-2.767 0-4.33-1.043-5.212-2.646-.882-1.604-1.082-3.729-1.082-5.934l4.25-.4c0 1.242.04 2.485.36 3.407.28.962.762 1.604 1.684 1.604 1.283 0 1.764-1.363 1.764-3.247 0-.963-.481-2.085-1.123-3.248-.36-.561-.721-1.162-1.122-1.764a139.146 139.146 0 01-2.726-4.049c-.963-1.483-1.684-3.007-2.125-4.57a7.872 7.872 0 01-.361-2.365c0-1.604.36-3.328 1.283-4.65.922-1.284 2.325-2.206 4.37-2.246 2.605-.04 4.129 1.042 4.97 2.606.843 1.604 1.083 3.568 1.083 5.212z"/>
  </g>
  <g fill="#c02327" aria-label="volume3" font-family="Montserrat-Regular,Montserrat" font-size="12.03">
    <path d="M38.381 81.649l-2.655 6.561h-1.11l-2.638-6.561h1.199l2.032 5.221 2.015-5.222z" letter-spacing="-.01em"/>
    <path d="M44.639 84.932q0 1.604-.823 2.532-.822.928-2.202.928-1.393 0-2.215-.928-.816-.928-.816-2.532 0-1.603.816-2.531.822-.934 2.215-.934 1.38 0 2.202.934.823.928.823 2.531zm-1.14 0q0-1.274-.5-1.891-.498-.623-1.385-.623-.9 0-1.398.623-.494.617-.494 1.891 0 1.234.5 1.874.499.635 1.392.635.88 0 1.38-.629.505-.634.505-1.88zM47.464 88.21H46.36v-9.14h1.104zM55.089 88.21h-1.105v-.728q-.558.44-1.069.675-.51.235-1.128.235-1.033 0-1.609-.628-.576-.635-.576-1.857V81.65h1.105v3.736q0 .499.047.857.047.353.2.605.158.259.41.376.253.118.735.118.429 0 .934-.224.51-.223.951-.57V81.65h1.105z"/>
    <path d="M67.491 88.21h-1.104v-3.736q0-.423-.041-.816-.035-.394-.159-.629-.135-.252-.387-.382-.253-.129-.729-.129-.464 0-.928.235-.464.23-.928.587.018.136.03.318.011.176.011.352v4.2h-1.104v-3.736q0-.435-.041-.822-.035-.394-.159-.629-.135-.252-.388-.376-.252-.129-.728-.129-.452 0-.91.223-.453.223-.905.57v4.899h-1.104v-6.561h1.103v.728q.517-.429 1.028-.67.517-.24 1.098-.24.67 0 1.134.282.47.282.7.78.669-.563 1.22-.81.553-.252 1.182-.252 1.08 0 1.591.658.517.652.517 1.826z" letter-spacing="0"/>
    <path d="M76.199 85.044h-4.834q0 .605.182 1.057.182.447.499.734.305.282.722.423.423.141.929.141.67 0 1.345-.264.681-.27.969-.529h.059v1.205q-.558.235-1.14.393-.581.159-1.222.159-1.633 0-2.549-.881-.916-.887-.916-2.514 0-1.61.875-2.556.881-.945 2.314-.945 1.328 0 2.044.775.723.775.723 2.203zm-1.075-.846q-.006-.87-.44-1.345-.43-.476-1.31-.476-.887 0-1.416.523-.523.523-.593 1.298zM76.197 98.428q.282.253.464.635.182.382.182.987 0 .599-.217 1.098-.217.5-.61.87-.441.41-1.04.61-.594.194-1.305.194-.728 0-1.433-.176-.705-.17-1.157-.376v-1.228h.088q.5.33 1.175.547.675.217 1.304.217.37 0 .787-.123.417-.124.676-.365.27-.258.399-.57.135-.31.135-.787 0-.47-.153-.775-.146-.311-.41-.487-.265-.183-.641-.247-.376-.07-.81-.07h-.53v-.976h.412q.893 0 1.421-.37.535-.376.535-1.092 0-.318-.135-.553-.135-.24-.376-.393-.253-.153-.54-.212-.288-.058-.653-.058-.558 0-1.186.2-.629.2-1.187.563h-.058v-1.227q.417-.206 1.11-.376.699-.177 1.35-.177.641 0 1.129.118.487.117.88.376.424.282.64.681.218.4.218.934 0 .729-.517 1.275-.51.54-1.21.681v.083q.282.047.646.2.365.146.617.37z"/>
  </g>
  <g fill="#c02327" aria-label="C H I N A T O W N T O D A Y" font-family="Montserrat-Light,Montserrat" font-size="12.9" font-weight="300">
    <path d="M38.573 31.51q-.346.15-.63.283-.277.132-.73.277-.384.12-.838.202-.447.088-.989.088-1.02 0-1.858-.283-.831-.29-1.449-.901-.604-.599-.944-1.518-.34-.926-.34-2.148 0-1.159.327-2.072.327-.914.945-1.544.598-.61 1.442-.932.85-.321 1.884-.321.755 0 1.505.183.756.182 1.675.642v1.48h-.093q-.775-.648-1.537-.944-.762-.297-1.631-.297-.712 0-1.285.234-.567.226-1.014.711-.435.473-.68 1.197-.24.718-.24 1.663 0 .989.264 1.7.271.712.693 1.16.441.466 1.027.693.592.22 1.247.22.901 0 1.688-.309.788-.308 1.474-.926h.088zM52.047 32.19h-1.248v-4.592h-4.68v4.592h-1.247v-9.379h1.247v3.679h4.68v-3.68h1.248zM62.408 32.19h-3.704v-.957h1.229v-7.465h-1.229v-.957h3.704v.957H61.18v7.465h1.228zM76.222 32.19h-1.544l-4.447-8.39v8.39h-1.165v-9.379H71l4.056 7.66v-7.66h1.166zM90.646 32.19h-1.33l-.919-2.614h-4.056l-.921 2.614h-1.266l3.414-9.379h1.663zm-2.633-3.685l-1.644-4.604-1.65 4.604zM103.294 23.92h-3.351v8.27h-1.247v-8.27h-3.351v-1.11h7.949zM116.08 23.888q.574.63.876 1.543.309.914.309 2.073 0 1.159-.315 2.078-.309.914-.87 1.525-.579.636-1.373.957-.787.321-1.801.321-.989 0-1.802-.327-.806-.328-1.373-.951-.567-.624-.875-1.531-.303-.907-.303-2.072 0-1.147.303-2.054.302-.913.882-1.562.554-.617 1.373-.945.825-.327 1.795-.327 1.008 0 1.808.334.806.327 1.366.938zm-.113 3.616q0-1.827-.819-2.816-.819-.995-2.236-.995-1.43 0-2.248.995-.813.989-.813 2.816 0 1.845.831 2.828.832.976 2.23.976 1.399 0 2.224-.976.831-.983.831-2.828zM134.694 22.811l-2.438 9.379h-1.405l-1.971-7.785-1.928 7.785h-1.372l-2.482-9.379h1.28l1.97 7.798 1.94-7.798h1.267l1.959 7.874 1.959-7.874zM148.223 32.19h-1.543l-4.447-8.39v8.39h-1.165v-9.379h1.934l4.056 7.66v-7.66h1.165zM166.477 23.92h-3.35v8.27h-1.248v-8.27h-3.35v-1.11h7.948zM179.264 23.888q.573.63.876 1.543.308.914.308 2.073 0 1.159-.315 2.078-.308.914-.869 1.525-.58.636-1.373.957-.787.321-1.802.321-.988 0-1.801-.327-.806-.328-1.373-.951-.567-.624-.876-1.531-.302-.907-.302-2.072 0-1.147.302-2.054.303-.913.882-1.562.554-.617 1.373-.945.825-.327 1.795-.327 1.008 0 1.808.334.806.327 1.367.938zm-.113 3.616q0-1.827-.82-2.816-.818-.995-2.235-.995-1.43 0-2.249.995-.812.989-.812 2.816 0 1.845.831 2.828.831.976 2.23.976 1.398 0 2.223-.976.832-.983.832-2.828zM194.885 27.51q0 1.279-.56 2.318-.555 1.04-1.48 1.612-.643.397-1.437.574-.787.176-2.078.176h-2.369v-9.379h2.343q1.374 0 2.18.202.812.195 1.373.541.957.599 1.493 1.594.535.995.535 2.362zm-1.304-.019q0-1.102-.384-1.858t-1.146-1.19q-.555-.315-1.178-.435-.624-.126-1.493-.126h-1.172v7.237h1.172q.9 0 1.568-.132.674-.132 1.235-.491.7-.448 1.046-1.178.352-.73.352-1.827zM208.83 32.19h-1.328l-.92-2.614h-4.056l-.92 2.614h-1.266l3.414-9.379h1.663zm-2.632-3.685l-1.644-4.604-1.65 4.604zM221.428 22.811l-3.3 5.266v4.113h-1.247v-3.98l-3.314-5.399h1.38l2.564 4.195 2.588-4.195z"/>
  </g>
  <path fill="none" stroke="#c02327" stroke-miterlimit="10" stroke-width="8" d="M4 4h238.26v123.09H4z"/>
</svg>
